<svg width="938" height="1118" viewBox="0 0 938 1118" fill="none" xmlns="http://www.w3.org/2000/svg">
<path d="M496.66 25.769C520.653 59.8775 545.379 92.9276 569.489 126.867C666.68 263.681 759.318 405.268 846.087 555.602C869.76 596.617 891.181 638.825 911.217 682.931C914.988 691.233 913.803 691.964 907.484 685.748C870.872 649.737 834.684 613.194 797.355 579.148C649.877 444.642 497.96 330.151 341.735 237.269C305.196 215.546 267.288 200.405 231.014 177.775C221.642 171.928 246.107 199.629 254 209.995C295.817 264.914 338.472 318.304 380.594 372.676C466.963 484.162 547.419 606.476 626.395 728.882C644.522 756.977 672.282 792.46 684.714 826.785C686.753 832.414 682.013 828.526 680.073 827.093C652.438 806.687 625.295 782.687 597.969 761.002C420.165 619.9 241.242 495.598 57.4911 389.792C55.586 388.695 20.3811 364.549 25.2431 375.742C35.0588 398.34 53.0392 417.882 65.9877 436.371C113.359 504.013 158.144 575.576 202.536 647.154C271.248 757.95 335.503 873.167 401.612 986.832C422.83 1023.31 445.039 1058.76 468.963 1091.55" stroke="#F4F4F4" stroke-width="50" stroke-linecap="round"/>
</svg>
